<?xml version="1.0" encoding="utf-8"?>
<!-- Generator: Adobe Illustrator 27.2.0, SVG Export Plug-In . SVG Version: 6.00 Build 0)  -->
<svg version="1.1" id="Calque_1" xmlns="http://www.w3.org/2000/svg" xmlns:xlink="http://www.w3.org/1999/xlink" x="0px" y="0px"
	 viewBox="0 0 700 700" style="enable-background:new 0 0 700 700;" xml:space="preserve">
<style type="text/css">
	.st0{fill:#383838;}
</style>
<path class="st0" d="M664.2,123.4c-19.1,0-29.5,15.3-29.5,34.6v169c-1.2,0.3-15.6,0.5-16.8,0.5c-1.2,0-2.6-0.2-3.8-0.5V120.7
	c0-19.1-11.4-33.9-30.7-33.9c-19.1,0-25.3,14.6-25.3,33.9v206.2c-1.2,0.3-16,0.5-17.2,0.5c-1.4,0-2.6-0.2-3.8-0.5V80.9
	c0-19.1-9.6-33.5-28.9-33.5s-28.8,14.4-28.8,33.5v245.9c-1.2,0.3-2.6,0.5-3.8,0.5c-1.2,0-14-0.2-15.2-0.5V119.5
	c0-19.7-16.6-36.2-30.2-34.8c-18.4,2-29.5,16.8-29.5,35.4v283.9c-1.2,0.3-12.3,0.5-13.5,0.5c-1.4,0-2.6-0.2-3.8-0.5V211.9h-0.2
	C380.2,110.2,297,28.3,194.5,28.3S8.9,110,6.1,211.9H6l0.5,309.2c-0.2,1.2-0.5,2.4-0.5,3.8c0,19.1,9.9,34.5,29.2,34.5
	c19.1,0,30.3-15.2,30.3-34.5c0-1.4-0.3-2.6-0.5-3.8V395.4h0.5v-39.5c1.2-0.3,12.6-0.5,13.9-0.5c1.5,0,2.9,0.2,4.3,0.5v202.2
	c-0.2,1.2-0.5,2.4-0.5,3.8c0,19.1,9.4,34.4,28.7,34.4s26.7-15.1,26.7-34.4c0-1.4-0.3-2.6-0.5-3.8V355.9c1.4-0.3,16.8-0.5,18.3-0.5
	s2.9,0.2,4.3,0.5V598c-0.2,1.2-0.5,2.4-0.5,3.8c0,19.1,8.2,32.7,27.5,32.7c19.1,0,25.3-13.5,25.3-32.7c0-1.4-0.3-2.6-0.5-3.8V355.9
	c1.4-0.3,2.8-0.5,4.3-0.5s19.6,0.2,20.9,0.5v203.6c-0.2,1.2,1,2.8,1,4.2c0,19.1,14,34.4,33.2,34.4s21.1-15.4,21.1-34.7
	c0-1.4-0.3-2.6-0.5-3.8V279.2c1.4-0.3,16.3-0.5,17.9-0.5c1.4,0,2.6,0.2,3.8,0.5v185.3c0,103.9,85,190.4,188.9,190.2
	c104-0.2,188.2-84.5,188.2-188.6h0.2V157.9c-0.5-19.1-15.9-34.6-35.2-34.6L664.2,123.4z"/>
</svg>
