<?xml version="1.0" encoding="utf-8"?>
<!-- Generator: Adobe Illustrator 27.2.0, SVG Export Plug-In . SVG Version: 6.00 Build 0)  -->
<svg version="1.1" id="Calque_1" xmlns="http://www.w3.org/2000/svg" xmlns:xlink="http://www.w3.org/1999/xlink" x="0px" y="0px"
	 viewBox="0 0 700 700" style="enable-background:new 0 0 700 700;" xml:space="preserve">
<path d="M551.3,211.4c-12.5,0-22.7,10.1-22.7,22.7v110.5c-0.8,0.2-1.7,0.3-2.5,0.3s-1.7-0.1-2.5-0.3V209.7
	c0-12.5-10.1-22.7-22.7-22.7c-12.5,0-22.7,10.1-22.7,22.7v134.8c-0.8,0.2-1.7,0.3-2.5,0.3c-0.9,0-1.7-0.1-2.5-0.3l0-160.8
	c0-12.5-10.1-22.7-22.7-22.7S428,171.2,428,183.7v160.8c-0.8,0.2-1.7,0.3-2.5,0.3s-1.7-0.1-2.5-0.3V208.9
	c0-12.5-10.1-22.7-22.7-22.7s-22.7,10.1-22.7,22.7v186c-0.8,0.2-1.7,0.3-2.5,0.3c-0.9,0-1.7-0.1-2.5-0.3V269.3h-0.1
	c-1.8-66.5-56.2-120-123.2-120c-67,0-121.4,53.4-123.2,120H126l0.3,202.2c-0.1,0.8-0.3,1.6-0.3,2.5c0,12.5,10.1,22.7,22.7,22.7
	c12.5,0,22.7-10.1,22.7-22.7c0-0.9-0.2-1.7-0.3-2.5v-82.2h0.3v-25.8c0.8-0.2,1.7-0.3,2.5-0.3c1,0,1.9,0.1,2.8,0.3v132.2
	c-0.1,0.8-0.3,1.6-0.3,2.5c0,12.5,10.1,22.7,22.7,22.7s22.7-10.1,22.7-22.7c0-0.9-0.2-1.7-0.3-2.5l0-132.2c0.9-0.2,1.8-0.3,2.8-0.3
	c1,0,1.9,0.1,2.8,0.3v158.3c-0.1,0.8-0.3,1.6-0.3,2.5c0,12.5,10.1,22.7,22.7,22.7c12.5,0,22.7-10.1,22.7-22.7c0-0.9-0.2-1.7-0.3-2.5
	l0-158.3c0.9-0.2,1.8-0.3,2.8-0.3c1,0,1.9,0.1,2.8,0.3v133.1c-0.1,0.8-0.3,1.6-0.3,2.5c0,12.5,10.1,22.7,22.7,22.7
	s22.7-10.1,22.7-22.7c0-0.9-0.2-1.7-0.3-2.5V313.3c0.9-0.2,1.8-0.3,2.8-0.3c0.9,0,1.7,0.1,2.5,0.3v122.2
	c0,68.1,55.2,123.3,123.3,123.3c68.1,0,123.3-55.2,123.3-123.3h0.1V234C574,221.5,563.9,211.4,551.3,211.4L551.3,211.4z"/>
</svg>
